<mxfile host="app.diagrams.net" modified="2024-03-20T10:43:31.081Z" agent="Mozilla/5.0 (Windows NT 10.0; Win64; x64) AppleWebKit/537.36 (KHTML, like Gecko) Chrome/122.0.0.0 Safari/537.36 Edg/122.0.0.0" etag="wPr5lZaTWaoHYODudWa9" version="24.0.1" type="github">
  <diagram name="Software Architecture diagram" id="d7f0vvMyvDHLgQnx0Blc">
    <mxGraphModel dx="1198" dy="581" grid="1" gridSize="10" guides="1" tooltips="1" connect="1" arrows="1" fold="1" page="1" pageScale="1" pageWidth="1169" pageHeight="827" math="0" shadow="0">
      <root>
        <mxCell id="0" />
        <mxCell id="1" parent="0" />
        <mxCell id="LPE8NBFNIZKNx00FfJ4p-13" value="" style="rounded=0;whiteSpace=wrap;html=1;" vertex="1" parent="1">
          <mxGeometry x="100" width="760" height="500" as="geometry" />
        </mxCell>
        <mxCell id="LPE8NBFNIZKNx00FfJ4p-6" value="" style="rounded=0;whiteSpace=wrap;html=1;" vertex="1" parent="1">
          <mxGeometry x="162.5" y="230" width="237.5" height="220" as="geometry" />
        </mxCell>
        <mxCell id="LPE8NBFNIZKNx00FfJ4p-12" value="" style="edgeStyle=orthogonalEdgeStyle;rounded=0;orthogonalLoop=1;jettySize=auto;html=1;" edge="1" parent="1" source="LPE8NBFNIZKNx00FfJ4p-1" target="LPE8NBFNIZKNx00FfJ4p-5">
          <mxGeometry relative="1" as="geometry" />
        </mxCell>
        <mxCell id="LPE8NBFNIZKNx00FfJ4p-1" value="Components (I.e Cv upload etc)" style="rounded=0;whiteSpace=wrap;html=1;" vertex="1" parent="1">
          <mxGeometry x="160" y="10" width="240" height="170" as="geometry" />
        </mxCell>
        <mxCell id="LPE8NBFNIZKNx00FfJ4p-2" value="Frontend React" style="rounded=0;whiteSpace=wrap;html=1;" vertex="1" parent="1">
          <mxGeometry x="180" y="20" width="210" height="60" as="geometry" />
        </mxCell>
        <mxCell id="LPE8NBFNIZKNx00FfJ4p-3" style="edgeStyle=orthogonalEdgeStyle;rounded=0;orthogonalLoop=1;jettySize=auto;html=1;exitX=0.5;exitY=1;exitDx=0;exitDy=0;" edge="1" parent="1" source="LPE8NBFNIZKNx00FfJ4p-1" target="LPE8NBFNIZKNx00FfJ4p-1">
          <mxGeometry relative="1" as="geometry" />
        </mxCell>
        <mxCell id="LPE8NBFNIZKNx00FfJ4p-5" value="Backend Python" style="rounded=0;whiteSpace=wrap;html=1;" vertex="1" parent="1">
          <mxGeometry x="185" y="260" width="185" height="60" as="geometry" />
        </mxCell>
        <mxCell id="LPE8NBFNIZKNx00FfJ4p-7" value="Flask App" style="rounded=0;whiteSpace=wrap;html=1;" vertex="1" parent="1">
          <mxGeometry x="187.5" y="357" width="182.5" height="57" as="geometry" />
        </mxCell>
        <mxCell id="LPE8NBFNIZKNx00FfJ4p-14" value="Actor" style="shape=umlActor;verticalLabelPosition=bottom;verticalAlign=top;html=1;outlineConnect=0;" vertex="1" parent="1">
          <mxGeometry x="40" y="20" width="30" height="60" as="geometry" />
        </mxCell>
        <mxCell id="LPE8NBFNIZKNx00FfJ4p-16" value="" style="endArrow=classic;html=1;rounded=0;entryX=0.008;entryY=0.356;entryDx=0;entryDy=0;entryPerimeter=0;" edge="1" parent="1" target="LPE8NBFNIZKNx00FfJ4p-1">
          <mxGeometry width="50" height="50" relative="1" as="geometry">
            <mxPoint x="80" y="70" as="sourcePoint" />
            <mxPoint x="130" y="20" as="targetPoint" />
          </mxGeometry>
        </mxCell>
      </root>
    </mxGraphModel>
  </diagram>
</mxfile>
